<svg id="Layer_1" data-name="Layer 1" xmlns="http://www.w3.org/2000/svg" viewBox="0 0 1344.42 751"><defs><style>.cls-1{fill:none;stroke:silver;stroke-miterlimit:10;}</style></defs><title>Design 003</title><polygon class="cls-1" points="1343.92 460.99 1343.92 267.74 1311.39 247.85 1311.39 98.5 1343.92 78.6 1343.92 0.5 922.71 0.5 892.23 41.25 468.19 41.25 437.71 0.5 0.5 0.5 0.5 80.76 30.78 100.43 30.78 249.78 0.5 269.44 0.5 462.48 30.91 482.19 30.91 631.54 0.5 651.25 0.5 702.81 46.02 750.5 581.16 750.5 602.47 719.37 761.95 719.37 783.27 750.5 1281.06 750.5 1343.92 703.9 1343.92 649.59 1310.59 630.7 1310.59 480.61 1343.92 460.99"/></svg>