<svg id="Layer_1" data-name="Layer 1" xmlns="http://www.w3.org/2000/svg" viewBox="0 0 1414.42 731"><defs><style>.cls-1{fill:none;stroke:#7fffff;stroke-miterlimit:10;}</style></defs><title>Design 005</title><polygon class="cls-1" points="1413.92 440.99 1413.92 247.74 1381.39 227.85 1381.39 78.5 1413.92 58.6 1413.92 0.5 952.71 0.5 922.23 31.25 498.19 31.25 467.71 0.5 0.5 0.5 0.5 60.76 30.78 80.43 30.78 229.78 0.5 249.44 0.5 442.48 30.91 462.19 30.91 611.54 0.5 631.25 0.5 682.81 46.02 730.5 581.16 730.5 602.47 689.37 821.95 689.37 843.27 730.5 1351.06 730.5 1413.92 683.9 1413.92 629.59 1380.59 610.7 1380.59 460.61 1413.92 440.99"/></svg>